PathFileType	4	(X/Y/Z)	C:/Users/opensim2020/Desktop/walking_exp_matlab/subject03_walking09_straight_03.trc																																																																																																																																											
DataRate	CameraRate	NumFrames	NumMarkers	Units	OrigDataRate	OrigDataStartFrame	OrigNumFrames																																																																																																																																							
100	100	7	47	mm	100	2987	383																																																																																																																																							
Frame#	Time	LFHD			RFHD			LBHD			RBHD			C7			T10			CLAV			STRN			RBAK			LSHO			LUPA			LELB			LFRM			LWRA			LWRB			LFIN			RSHO			RUPA			RELB			RFRM			RWRA			RWRB			RFIN			LASI			RASI			LPSI			RPSI			LTHI			LKNE			LTIB			LANK			LHEE			LTOE			RTHI			RKNE			RTIB			RANK			RHEE			RTOE			*39			*40			*41			*42			*43			*44			*45			*46		
		X1	Y1	Z1	X2	Y2	Z2	X3	Y3	Z3	X4	Y4	Z4	X5	Y5	Z5	X6	Y6	Z6	X7	Y7	Z7	X8	Y8	Z8	X9	Y9	Z9	X10	Y10	Z10	X11	Y11	Z11	X12	Y12	Z12	X13	Y13	Z13	X14	Y14	Z14	X15	Y15	Z15	X16	Y16	Z16	X17	Y17	Z17	X18	Y18	Z18	X19	Y19	Z19	X20	Y20	Z20	X21	Y21	Z21	X22	Y22	Z22	X23	Y23	Z23	X24	Y24	Z24	X25	Y25	Z25	X26	Y26	Z26	X27	Y27	Z27	X28	Y28	Z28	X29	Y29	Z29	X30	Y30	Z30	X31	Y31	Z31	X32	Y32	Z32	X33	Y33	Z33	X34	Y34	Z34	X35	Y35	Z35	X36	Y36	Z36	X37	Y37	Z37	X38	Y38	Z38	X39	Y39	Z39	X40	Y40	Z40	X41	Y41	Z41	X42	Y42	Z42	X43	Y43	Z43	X44	Y44	Z44	X45	Y45	Z45	X46	Y46	Z46	X47	Y47	Z47
																																																																																																																																														
192	1.91	399.33997	1623.44543	-1069.48621	375.25937	1625.91833	-938.44458	274.38147	1575.55554	-1087.86743	255.8914	1577.77087	-958.53796	234.0788	1417.17334	-1031.96936	207.65025	1102.68115	-1031.09058	357.2551	1343.29907	-1021.68829	404.89325	1180.12256	-1022.79749	177.97432	1241.99866	-935.74902	322.21155	1377.17529	-1180.01978	338.65781	1181.57336	-1252.87866	362.91501	1061.28137	-1264.99377	405.85925	938.21057	-1260.72803	434.37933	823.34033	-1228.87439	421.08206	827.21899	-1283.06116	447.64307	747.79156	-1273.01184	302.10458	1367.00012	-865.08496	315.09644	1144.896	-793.69177	340.71072	1034.61841	-781.44989	372.00647	901.36078	-780.79547	414.04391	810.77917	-816.79449	382.79257	802.21069	-773.64069	415.61404	736.10669	-781.17126	386.22507	941.96344	-1135.72473	366.65179	940.02277	-898.22778	221.00388	967.06311	-1098.46753	209.41681	969.05505	-949.0296	337.16611	638.89673	-1169.7218	343.33453	462.29144	-1123.36938	293.22223	272.63025	-1123.63733	267.7814	65.28315	-1078.77563	224.76497	31.6398	-1046.43445	418.77216	30.20785	-1050.87817	355.55295	643.9165	-851.01428	412.66379	473.00644	-869.83441	298.73071	318.89877	-867.33044	174.18298	142.80205	-908.79651	123.34789	128.77577	-965.2406	279.86899	50.6592	-908.17017	306.41693	1682.41711	-1033.40479	NaN	NaN	NaN	NaN	NaN	NaN	NaN	NaN	NaN	NaN	NaN	NaN	NaN	NaN	NaN	NaN	NaN	NaN	NaN	NaN	NaN
193	1.92	406.85156	1623.19177	-1069.16211	382.7056	1625.54749	-938.16803	281.56772	1576.16101	-1087.73291	263.02448	1578.21326	-958.39294	240.64001	1417.224	-1032.15015	214.50409	1102.65759	-1031.79004	363.81659	1343.39709	-1021.87152	411.6478	1180.2876	-1023.2533	184.5601	1241.7887	-936.32703	328.81729	1377.63599	-1180.09692	346.79041	1182.44812	-1253.59351	372.21674	1062.47217	-1265.9115	417.23032	940.15228	-1261.4054	447.99658	826.04083	-1229.3905	434.30115	829.45056	-1283.50562	462.40778	750.55463	-1273.24341	308.32449	1366.96179	-865.271	320.61819	1144.72083	-793.76831	345.64066	1034.41211	-781.29089	376.49106	901.02277	-780.51086	418.33926	810.25433	-816.16449	386.76343	801.80627	-773.22076	419.22141	735.41315	-780.68555	392.80795	941.61951	-1136.39514	373.66983	940.34619	-898.7984	227.67159	966.96735	-1098.73438	216.29604	969.19635	-949.31342	342.22549	638.448	-1169.80164	347.09116	461.80344	-1123.41528	295.396	272.58252	-1123.60083	267.93405	65.43221	-1078.81335	224.80357	31.88704	-1046.38477	418.74551	30.17441	-1050.93542	365.83548	645.01721	-851.43634	424.00156	474.50284	-871.06256	315.08154	316.45065	-867.82104	196.9332	135.78441	-908.91486	146.59003	119.71078	-964.88226	306.2785	48.1157	-909.43097	NaN	NaN	NaN	NaN	NaN	NaN	NaN	NaN	NaN	NaN	NaN	NaN	NaN	NaN	NaN	NaN	NaN	NaN	NaN	NaN	NaN	NaN	NaN	NaN
194	1.93	414.32236	1622.89209	-1068.86877	390.14136	1625.08154	-937.82947	288.79266	1576.6936	-1087.5542	270.17953	1578.54346	-958.22858	247.27272	1417.21411	-1032.23816	221.364	1102.58167	-1032.42542	370.33676	1343.37378	-1021.98859	418.32083	1180.32349	-1023.58484	191.14339	1241.40295	-936.98163	335.48056	1378.01672	-1180.19446	354.68536	1183.20227	-1254.11096	381.42313	1063.55383	-1266.62476	428.50784	942.06744	-1262.03333	461.42868	828.42865	-1229.78503	447.20142	831.42938	-1283.56519	476.91852	753.19885	-1273.27258	314.50876	1366.8208	-865.40265	326.26077	1144.4646	-793.86047	350.68512	1034.05005	-781.19482	380.94009	900.5379	-780.04468	422.7131	809.59827	-815.56927	390.875	801.27655	-772.86475	422.99075	734.64783	-780.23639	399.2619	941.22571	-1137.04065	380.65802	940.57202	-899.27722	234.22702	966.7594	-1098.90649	223.17493	969.31763	-949.57709	346.60025	638.08307	-1170.55518	350.50912	461.2692	-1123.46533	297.56772	272.49451	-1123.604	268.01764	65.43053	-1078.74023	225.52527	31.48122	-1046.26819	418.80276	30.15545	-1050.87268	374.34814	646.16522	-851.21576	435.13821	475.82071	-872.35419	331.33118	314.03391	-868.45099	220.20386	128.75069	-909.04932	170.31258	110.80531	-964.81757	332.93906	45.73027	-910.61798	322.27786	1682.70581	-1032.60059	NaN	NaN	NaN	NaN	NaN	NaN	NaN	NaN	NaN	NaN	NaN	NaN	NaN	NaN	NaN	NaN	NaN	NaN	NaN	NaN	NaN
195	1.94	421.77673	1622.51221	-1068.43823	397.49902	1624.54602	-937.47522	295.94739	1577.08435	-1087.36646	277.34421	1578.74915	-958.03168	253.93666	1417.11975	-1032.44958	228.15205	1102.4939	-1033.09998	376.96136	1343.26575	-1022.15796	425.05017	1180.26514	-1024.00269	197.70302	1241.005	-937.65643	342.18182	1378.24084	-1180.2561	362.65302	1183.90613	-1254.71021	390.47772	1064.57654	-1267.38928	439.67963	943.89624	-1262.67188	474.89816	831.04919	-1230.05408	460.11749	833.47437	-1283.70776	491.25632	755.74304	-1273.18225	320.79691	1366.36853	-865.56396	331.95108	1144.05847	-793.91083	355.87088	1033.62073	-781.11023	385.61432	899.99493	-779.73871	427.18369	808.91571	-815.05188	395.0824	800.6496	-772.45947	426.7309	733.74976	-779.72198	405.71014	940.76733	-1137.60681	387.59811	940.78101	-899.75018	240.75766	966.47662	-1099.16858	229.95831	969.32605	-949.9104	351.25665	637.57025	-1170.70898	354.13721	460.70792	-1123.6344	299.77332	272.31647	-1123.58777	268.40668	65.73415	-1078.67798	224.81627	32.23918	-1046.40381	418.7598	30.06592	-1050.85156	384.4147	646.92035	-851.61224	445.88553	477.03519	-873.45605	347.49115	311.70309	-869.16113	243.83279	122.1158	-909.32776	194.1519	102.33991	-964.82117	359.72531	43.56172	-911.77264	330.38177	1679.44946	-1033.91846	NaN	NaN	NaN	NaN	NaN	NaN	NaN	NaN	NaN	NaN	NaN	NaN	NaN	NaN	NaN	NaN	NaN	NaN	NaN	NaN	NaN
196	1.95	429.13782	1622.07959	-1068.01611	404.84091	1623.91736	-937.02094	303.12274	1577.3761	-1087.14172	284.40158	1578.85986	-957.82123	260.67407	1417.00208	-1032.55957	234.89392	1102.09436	-1033.68872	383.60101	1343.02698	-1022.23523	431.71045	1180.05469	-1024.30176	204.23792	1240.47131	-938.37799	348.96768	1378.38428	-1180.2948	370.62881	1184.44592	-1255.26575	399.48929	1065.43542	-1268.13501	450.69409	945.59332	-1263.2937	488.30731	833.61475	-1230.28113	472.96243	835.51129	-1283.92102	505.51788	758.29395	-1272.97278	327.04068	1365.88391	-865.75183	337.5994	1143.51526	-793.9646	361.12445	1033.05774	-781.02502	390.32443	899.29987	-779.43695	431.49512	808.00958	-814.60529	399.31586	799.91162	-772.05615	430.69827	732.86896	-779.26404	411.81097	940.25812	-1137.95837	394.50504	941.01355	-900.28094	247.21915	966.09766	-1099.43945	236.75354	969.27179	-950.09949	355.91779	636.97516	-1170.875	357.73535	460.24121	-1123.70532	301.93304	272.17056	-1123.59717	268.64197	65.88492	-1078.64343	225.45757	32.13481	-1046.17786	418.78683	30.02459	-1050.82227	393.75821	647.65033	-851.79675	456.30203	478.15387	-874.52271	363.53586	309.38013	-869.93256	267.53403	115.68702	-909.80853	218.62648	93.90987	-965.28595	386.5957	41.83742	-912.5072	338.06827	1679.44006	-1033.34644	NaN	NaN	NaN	NaN	NaN	NaN	NaN	NaN	NaN	NaN	NaN	NaN	NaN	NaN	NaN	NaN	NaN	NaN	NaN	NaN	NaN
197	1.96	436.4776	1621.61328	-1067.36523	412.11191	1623.25879	-936.5556	310.29321	1577.56226	-1086.88599	291.39658	1578.7688	-957.59528	267.47461	1416.74866	-1032.75854	241.606	1101.7533	-1034.16394	390.22842	1342.67542	-1022.30225	438.42682	1179.74548	-1024.71082	210.79808	1239.90564	-939.06757	355.85785	1378.36646	-1180.38782	378.50546	1184.82129	-1255.72852	408.46326	1066.08679	-1268.83789	461.63397	947.22858	-1263.70654	501.66864	836.35913	-1230.31104	485.60587	837.2403	-1283.62573	519.52527	760.73596	-1272.57129	333.28091	1365.22534	-865.89319	343.24451	1142.84924	-794.0415	366.38092	1032.38647	-781.00208	395.09503	898.54053	-779.20392	435.92209	807.04816	-814.22894	403.64798	799.09467	-771.67657	434.74777	731.875	-778.7998	418.04169	939.70483	-1138.57043	401.35651	941.09509	-900.82074	253.56903	965.70764	-1099.54675	243.43503	969.09894	-950.32465	360.32367	636.44446	-1171.18384	361.18985	459.69382	-1123.70581	303.99866	272.05234	-1123.34729	268.8179	65.9938	-1078.59937	225.29332	32.49921	-1046.06335	418.86371	30.15387	-1050.84668	402.85513	648.26758	-851.65948	466.44708	479.1102	-875.38171	379.431	307.15482	-870.5141	291.42142	109.42493	-910.5506	243.31139	86.13438	-965.48682	413.33365	40.52236	-913.20306	345.68234	1682.59619	-1031.11377	NaN	NaN	NaN	NaN	NaN	NaN	NaN	NaN	NaN	NaN	NaN	NaN	NaN	NaN	NaN	NaN	NaN	NaN	NaN	NaN	NaN
198	1.97	443.81665	1621.09131	-1066.83435	419.36035	1622.49097	-936.04242	317.46451	1577.66687	-1086.60352	298.51611	1578.61768	-957.35004	274.25131	1416.44751	-1032.88159	248.2903	1101.39307	-1034.58765	396.91928	1342.24023	-1022.367	445.04102	1179.33643	-1025.01587	217.32561	1239.29443	-939.80939	362.83087	1378.26404	-1180.45044	386.5162	1185.12012	-1256.13635	417.42673	1066.67542	-1269.42896	472.38113	948.6778	-1264.08032	514.68085	838.78955	-1230.16357	498.11264	839.05908	-1283.58142	533.41895	763.13068	-1271.99048	339.56314	1364.48254	-865.97382	348.9292	1142.09546	-794.06195	371.73434	1031.56348	-780.953	399.93344	897.64594	-779.12097	440.32132	805.91522	-813.90979	408.1301	798.16327	-771.36981	438.93326	730.8396	-778.39465	424.423	939.10602	-1139.32275	408.19348	941.08203	-901.37427	259.90454	965.16931	-1099.65759	250.11888	968.83801	-950.44006	364.79852	635.95508	-1171.13904	364.4299	459.14911	-1123.70813	305.71729	271.90222	-1123.50391	268.91406	66.10108	-1078.5105	225.28586	32.72923	-1045.95764	418.8757	30.10093	-1050.81787	412.32193	648.67181	-851.67584	476.25677	479.9238	-876.14374	395.24222	304.90833	-871.02606	315.51657	103.71668	-911.07788	268.06039	78.79121	-966.05676	439.9935	39.67947	-913.88782	353.28494	1679.10559	-1032.01123	NaN	NaN	NaN	NaN	NaN	NaN	NaN	NaN	NaN	NaN	NaN	NaN	NaN	NaN	NaN	NaN	NaN	NaN	NaN	NaN	NaN
